HIERARCHY
ROOT Reference
{
  OFFSET 0 0 0
  CHANNELS 6 Xposition Yposition Zposition Zrotation Xrotation Yrotation
  JOINT Hips
  {
    OFFSET 251.394 724.17 483.536
    CHANNELS 3 Zrotation Xrotation Yrotation
    JOINT RightUpLeg
    {
      OFFSET -0.450515 -23.4426 -1.37224
      CHANNELS 3 Zrotation Xrotation Yrotation
      JOINT RightLeg
      {
        OFFSET 112.821 0.0872427 -0.321027
        CHANNELS 3 Zrotation Xrotation Yrotation
        JOINT RightFoot
        {
          OFFSET 105.718 0.000193788 0.0213165
          CHANNELS 3 Zrotation Xrotation Yrotation
          JOINT RightToeBase
          {
            OFFSET 37.638 -0.000116272 0.00224792
            CHANNELS 3 Zrotation Xrotation Yrotation
            JOINT RightToeEnd
            {
              OFFSET 21.2112 0.114605 -0.000138184
              CHANNELS 3 Zrotation Xrotation Yrotation
              End Site
              {
                OFFSET 0 0 0
              }
            }
          }
        }
      }
    }
    JOINT LeftUpLeg
    {
      OFFSET -0.449508 23.4315 -1.37054
      CHANNELS 3 Zrotation Xrotation Yrotation
      JOINT LeftLeg
      {
        OFFSET 112.821 -0.0485242 -0.372458
        CHANNELS 3 Zrotation Xrotation Yrotation
        JOINT LeftFoot
        {
          OFFSET 105.716 0.00496094 -0.0229443
          CHANNELS 3 Zrotation Xrotation Yrotation
          JOINT LeftToeBase
          {
            OFFSET 37.639 0 0.00158905
            CHANNELS 3 Zrotation Xrotation Yrotation
            JOINT LeftToeEnd
            {
              OFFSET 21.2113 -0.125031 -0.00017438
              CHANNELS 3 Zrotation Xrotation Yrotation
              End Site
              {
                OFFSET 0 0 0
              }
            }
          }
        }
      }
    }
    JOINT Spine
    {
      OFFSET -5.01225 0.000463591 -9.60395
      CHANNELS 3 Zrotation Xrotation Yrotation
      JOINT Spine1
      {
        OFFSET 26.0222 -0.000271301 -0.000155029
        CHANNELS 3 Zrotation Xrotation Yrotation
        JOINT Spine2
        {
          OFFSET 27.173 -0.000155029 -0.000310058
          CHANNELS 3 Zrotation Xrotation Yrotation
          JOINT Spine3
          {
            OFFSET 36.3953 -0.000232544 7.75146e-005
            CHANNELS 3 Zrotation Xrotation Yrotation
            JOINT Neck
            {
              OFFSET 36.4331 0 -3.00261
              CHANNELS 3 Zrotation Xrotation Yrotation
              JOINT Head
              {
                OFFSET 23.0407 -0.000232544 -0.000310058
                CHANNELS 3 Zrotation Xrotation Yrotation
                End Site
                {
                  OFFSET 0 0 0
                }
              }
            }
            JOINT LeftShoulder
            {
              OFFSET 20.1317 6.74168 -12.6061
              CHANNELS 3 Zrotation Xrotation Yrotation
              JOINT LeftArm
              {
                OFFSET 34.2172 -5.81359e-005 7.75146e-005
                CHANNELS 3 Zrotation Xrotation Yrotation
                JOINT LeftForeArm
                {
                  OFFSET 65.4129 -0.0821605 0.0585235
                  CHANNELS 3 Zrotation Xrotation Yrotation
                  JOINT LeftHand
                  {
                    OFFSET 67.3883 0.0359667 0.0112396
                    CHANNELS 3 Zrotation Xrotation Yrotation
                    JOINT LeftHandThumb1
                    {
                      OFFSET 8.78386 2.85353 -6.05362
                      CHANNELS 3 Zrotation Xrotation Yrotation
                      JOINT LeftHandThumb2
                      {
                        OFFSET 8.25498 -0.000116272 -0.000174407
                        CHANNELS 3 Zrotation Xrotation Yrotation
                        JOINT LeftHandThumb3
                        {
                          OFFSET 7.24822 0.000310058 5.81358e-005
                          CHANNELS 3 Zrotation Xrotation Yrotation
                          JOINT LeftHandThumb4
                          {
                            OFFSET 7.0004 -3.87568e-005 -0.000310057
                            CHANNELS 3 Zrotation Xrotation Yrotation
                            End Site
                            {
                              OFFSET 0 0 0
                            }
                          }
                        }
                      }
                    }
                    JOINT LeftHandIndex1
                    {
                      OFFSET 24.0991 -1.01537 -5.40558
                      CHANNELS 3 Zrotation Xrotation Yrotation
                      JOINT LeftHandIndex2
                      {
                        OFFSET 7.26759 -0.000290679 -0.000465086
                        CHANNELS 3 Zrotation Xrotation Yrotation
                        JOINT LeftHandIndex3
                        {
                          OFFSET 7.13628 -1.93787e-005 0.000232543
                          CHANNELS 3 Zrotation Xrotation Yrotation
                          JOINT LeftHandIndex4
                          {
                            OFFSET 5.46699 9.68932e-005 -0.000387571
                            CHANNELS 3 Zrotation Xrotation Yrotation
                            End Site
                            {
                              OFFSET 0 0 0
                            }
                          }
                        }
                      }
                    }
                    JOINT LeftHandMiddle1
                    {
                      OFFSET 24.4604 -2.52837 0.918567
                      CHANNELS 3 Zrotation Xrotation Yrotation
                      JOINT LeftHandMiddle2
                      {
                        OFFSET 7.41627 -5.81359e-005 0.000116271
                        CHANNELS 3 Zrotation Xrotation Yrotation
                        JOINT LeftHandMiddle3
                        {
                          OFFSET 8.76829 3.87573e-005 -7.75142e-005
                          CHANNELS 3 Zrotation Xrotation Yrotation
                          JOINT LeftHandMiddle4
                          {
                            OFFSET 6.07588 -0.00013565 -5.81356e-005
                            CHANNELS 3 Zrotation Xrotation Yrotation
                            End Site
                            {
                              OFFSET 0 0 0
                            }
                          }
                        }
                      }
                    }
                    JOINT LeftHandRing1
                    {
                      OFFSET 22.465 -1.97467 6.3466
                      CHANNELS 3 Zrotation Xrotation Yrotation
                      JOINT LeftHandRing2
                      {
                        OFFSET 7.36666 -0.000232544 0.000387571
                        CHANNELS 3 Zrotation Xrotation Yrotation
                        JOINT LeftHandRing3
                        {
                          OFFSET 8.07624 -0.000465087 -0.000203475
                          CHANNELS 3 Zrotation Xrotation Yrotation
                          JOINT LeftHandRing4
                          {
                            OFFSET 6.04433 0.00013565 3.87571e-005
                            CHANNELS 3 Zrotation Xrotation Yrotation
                            End Site
                            {
                              OFFSET 0 0 0
                            }
                          }
                        }
                      }
                    }
                    JOINT LeftHandPinky1
                    {
                      OFFSET 19.5278 0.352933 10.4295
                      CHANNELS 3 Zrotation Xrotation Yrotation
                      JOINT LeftHandPinky2
                      {
                        OFFSET 6.16525 5.8136e-005 -0.000251921
                        CHANNELS 3 Zrotation Xrotation Yrotation
                        JOINT LeftHandPinky3
                        {
                          OFFSET 6.14448 -0.000329434 -0.00510625
                          CHANNELS 3 Zrotation Xrotation Yrotation
                          JOINT LeftHandPinky4
                          {
                            OFFSET 4.98555 0.000116272 0.000116271
                            CHANNELS 3 Zrotation Xrotation Yrotation
                            End Site
                            {
                              OFFSET 0 0 0
                            }
                          }
                        }
                      }
                    }
                  }
                }
              }
            }
            JOINT RightShoulder
            {
              OFFSET 20.1309 -6.74152 -12.6063
              CHANNELS 3 Zrotation Xrotation Yrotation
              JOINT RightArm
              {
                OFFSET 34.2171 7.75146e-005 7.75146e-005
                CHANNELS 3 Zrotation Xrotation Yrotation
                JOINT RightForeArm
                {
                  OFFSET 65.4492 0.242543 -0.176501
                  CHANNELS 3 Zrotation Xrotation Yrotation
                  JOINT RightHand
                  {
                    OFFSET 67.3888 -0.0867388 0.0597442
                    CHANNELS 3 Zrotation Xrotation Yrotation
                    JOINT RightHandThumb1
                    {
                      OFFSET 8.78307 -2.85357 -6.05302
                      CHANNELS 3 Zrotation Xrotation Yrotation
                      JOINT RightHandThumb2
                      {
                        OFFSET 8.25493 -7.75145e-005 0
                        CHANNELS 3 Zrotation Xrotation Yrotation
                        JOINT RightHandThumb3
                        {
                          OFFSET 7.24797 -0.000174408 0.000155029
                          CHANNELS 3 Zrotation Xrotation Yrotation
                          JOINT RightHandThumb4
                          {
                            OFFSET 7.00062 0 0
                            CHANNELS 3 Zrotation Xrotation Yrotation
                            End Site
                            {
                              OFFSET 0 0 0
                            }
                          }
                        }
                      }
                    }
                    JOINT RightHandIndex1
                    {
                      OFFSET 24.0991 1.01525 -5.40578
                      CHANNELS 3 Zrotation Xrotation Yrotation
                      JOINT RightHandIndex2
                      {
                        OFFSET 7.26773 7.75144e-005 0.000232543
                        CHANNELS 3 Zrotation Xrotation Yrotation
                        JOINT RightHandIndex3
                        {
                          OFFSET 7.13572 -0.000310058 3.87571e-005
                          CHANNELS 3 Zrotation Xrotation Yrotation
                          JOINT RightHandIndex4
                          {
                            OFFSET 5.46717 0 3.87572e-005
                            CHANNELS 3 Zrotation Xrotation Yrotation
                            End Site
                            {
                              OFFSET 0 0 0
                            }
                          }
                        }
                      }
                    }
                    JOINT RightHandMiddle1
                    {
                      OFFSET 24.4603 2.52899 0.918547
                      CHANNELS 3 Zrotation Xrotation Yrotation
                      JOINT RightHandMiddle2
                      {
                        OFFSET 7.41641 -0.000116272 -0.000116272
                        CHANNELS 3 Zrotation Xrotation Yrotation
                        JOINT RightHandMiddle3
                        {
                          OFFSET 8.76765 -3.87577e-005 0.000232543
                          CHANNELS 3 Zrotation Xrotation Yrotation
                          JOINT RightHandMiddle4
                          {
                            OFFSET 6.07609 -0.000193787 -0.000116271
                            CHANNELS 3 Zrotation Xrotation Yrotation
                            End Site
                            {
                              OFFSET 0 0 0
                            }
                          }
                        }
                      }
                    }
                    JOINT RightHandRing1
                    {
                      OFFSET 22.465 1.97571 6.34696
                      CHANNELS 3 Zrotation Xrotation Yrotation
                      JOINT RightHandRing2
                      {
                        OFFSET 7.36684 0.000193786 0.000155029
                        CHANNELS 3 Zrotation Xrotation Yrotation
                        JOINT RightHandRing3
                        {
                          OFFSET 8.07614 -0.000271301 0
                          CHANNELS 3 Zrotation Xrotation Yrotation
                          JOINT RightHandRing4
                          {
                            OFFSET 6.04468 0.000232543 0
                            CHANNELS 3 Zrotation Xrotation Yrotation
                            End Site
                            {
                              OFFSET 0 0 0
                            }
                          }
                        }
                      }
                    }
                    JOINT RightHandPinky1
                    {
                      OFFSET 19.5277 -0.352346 10.4296
                      CHANNELS 3 Zrotation Xrotation Yrotation
                      JOINT RightHandPinky2
                      {
                        OFFSET 6.16508 0 0.000232543
                        CHANNELS 3 Zrotation Xrotation Yrotation
                        JOINT RightHandPinky3
                        {
                          OFFSET 6.14396 -0.000155048 -0.0048834
                          CHANNELS 3 Zrotation Xrotation Yrotation
                          JOINT RightHandPinky4
                          {
                            OFFSET 4.98577 -7.75146e-005 -7.75143e-005
                            CHANNELS 3 Zrotation Xrotation Yrotation
                            End Site
                            {
                              OFFSET 0 0 0
                            }
                          }
                        }
                      }
                    }
                  }
                }
              }
            }
          }
        }
      }
    }
  }
}
MOTION
Frames:	4
Frame Time:	0.0333333
0 0 0 -90 -7.01671e-015 -180 1.54904 -4.6631 -84.6642 156.733 -0.824356 -67.5376 -3.40933 -2.94022 -49.034 7.7874 -2.7392 66.2035 -0.571786 0.104733 57.7613 6.29383e-006 -0.000121404 -86.4974 -158.933 4.71057 -68.4825 0.669247 0.555318 -49.9122 4.39361 -5.1407 67.0293 0.581573 -0.122638 56.7844 1.24094e-005 4.95838e-006 -86.4974 4.98879 -7.42141 135.209 -2.37407 -0.84356 -11.7232 1.29903 -0.718316 -12.3191 0.806034 1.33249 7.08684 13.8747 -1.37043 45.893 -5.96462 -5.89255 53.863 104.166 23.2085 -35.4006 50.4809 26.9114 14.3819 22.8028 78.2423 48.1682 -28.898 28.1294 26.369 -156.123 -1.29684 165.437 0.000376854 -0.000116045 15.9178 0.000262647 -1.17847e-005 17.0798 3.32899e-005 -0.00174938 -0.000238202 113.491 82.1668 -75.626 -0.000320823 -0.000293869 25.1429 0.00128229 -0.000634852 23.7877 -0.00056904 -0.000535944 -0.000474275 31.6159 89.9994 13.9667 0.000131411 -0.000480665 32.8604 0.00116003 -0.000639895 29.0793 -0.000533609 -0.000341497 0.000112269 -54.9761 87.2293 104.35 0.000399953 -0.0007234 36.6517 0.00178531 -0.00019787 32.8706 -0.000646304 -0.000824202 0.00069155 -54.9965 84.2102 104.371 0.00142935 -0.00103254 36.6517 0.000416821 -8.48865e-005 32.8706 -6.31795e-005 -4.86511e-005 -0.000402981 -107.793 -17.8316 -41.7615 -63.8626 -27.5716 -2.87939 -3.40859 -79.915 54.1145 31.9526 -42.5095 1.95947 163.084 -0.517171 165.389 -9.21848e-005 9.64413e-005 15.9178 0.00011725 0.000119806 17.0798 0.000152588 0.000274658 -180 -113.49 -82.1668 -93.2679 -0.000231914 -0.000488791 7.50019 0.000196521 0.000175296 6.14497 -9.15527e-005 -3.05175e-005 -180 -80.1687 -89.9996 -57.6646 -7.62227e-006 8.08026e-005 9.78189 6.40257e-005 0.000269965 6.0008 -1.52588e-005 1.52588e-005 -180 54.9791 -87.2303 77.1204 -2.82024e-005 -0.00024113 9.41914 0.000147591 0.000672568 5.63809 1.52588e-005 -7.62938e-005 180 54.9979 -84.211 77.1393 9.94421e-005 0.000420131 9.41914 5.93219e-005 0.00023185 5.6381 -7.01671e-015 7.01671e-015 180 
0 0 0 -90 -7.01671e-015 -180 1.60278 -4.47962 -84.8702 156.728 -0.724605 -68.0868 -3.32178 -2.93181 -48.3741 7.47823 -2.80991 66.0518 -0.571792 0.104733 57.7613 6.68139e-006 -0.000234925 -86.4974 -158.949 4.63589 -68.9526 0.763735 0.647638 -49.3565 4.2148 -5.13938 66.7329 0.581552 -0.122623 56.7844 1.29572e-005 -2.33366e-005 -86.4974 4.46716 -7.21178 134.267 -1.93531 -0.455922 -12.0829 1.56899 -0.354687 -12.6417 0.931785 1.72812 6.82632 12.97 -2.82398 46.3134 -6.91106 -6.92347 56.7879 104.166 23.2084 -35.4006 48.7368 26.004 14.5869 21.925 79.1575 51.2661 -26.2501 28.0399 23.9834 -156.123 -1.29684 165.437 0.000378627 -0.000168883 15.9179 0.000256293 1.34639e-005 17.0798 3.32899e-005 -0.00175357 -0.000238203 113.491 82.1668 -75.626 -0.000270856 -0.00042957 25.143 0.00139821 -0.000870843 23.7878 -0.000569043 -0.000542339 -0.000474273 27.2701 89.9993 18.3125 0.00027845 -0.000497515 32.8605 0.00119735 -0.000450971 29.0794 -0.000533608 -0.00038845 0.000112269 -54.974 87.2293 104.348 0.000517273 -0.000874966 36.6518 0.00180348 -2.98691e-005 32.8708 -0.000644594 -0.00066895 0.000691127 -54.9962 84.2102 104.37 0.00154246 -0.00123828 36.6518 0.000435405 5.24058e-005 32.8707 -6.31796e-005 -5.80048e-005 -0.000402981 -107.508 -18.0621 -41.5961 -64.5697 -24.3411 -2.62337 -10.3078 -84.8958 48.1698 30.9596 -39.5304 -0.502775 163.084 -0.517275 165.389 -9.01961e-005 7.50657e-005 15.9179 0.000120785 5.54252e-005 17.0798 0.000152588 0.000274658 -180 -113.49 -82.1668 -93.268 -0.000231664 -0.000492691 7.5002 0.00019597 0.000179081 6.14498 -9.15527e-005 -3.05176e-005 -180 -80.0931 -89.9996 -57.589 -1.53608e-005 5.93426e-005 9.7819 6.23886e-005 0.000270557 6.00081 -1.52588e-005 -3.24611e-014 -180 54.9805 -87.2303 77.1218 -2.88653e-005 -0.000234258 9.41915 0.000146332 0.000675276 5.6381 1.52588e-005 -9.15527e-005 180 54.9981 -84.211 77.1395 9.83291e-005 0.000388787 9.41916 5.81732e-005 0.000234559 5.63811 -7.01671e-015 -5.79056e-014 180 
0 0 0 -90 -7.01671e-015 -180 1.66273 -4.2861 -85.1013 156.721 -0.622766 -68.7043 -3.22958 -2.92327 -47.6527 7.11989 -2.89884 65.9186 -0.571796 0.104736 57.7613 7.64101e-006 -2.74535e-005 -86.4974 -158.963 4.53691 -69.4766 0.857145 0.743593 -48.756 4.0125 -5.1413 66.4196 0.581542 -0.122631 56.7844 1.52977e-005 -4.30482e-005 -86.4974 3.82397 -6.90511 133.07 -1.44656 -0.0157545 -12.4825 1.85301 0.0476229 -12.991 1.0428 2.16209 6.55946 12.0117 -4.33303 46.6769 -7.76495 -7.97973 59.1848 104.166 23.2084 -35.4006 46.86 25.056 14.8065 20.4819 80.0841 55.1852 -23.2751 27.6852 21.2967 -156.123 -1.29685 165.437 0.000377387 -5.60917e-005 15.9179 0.000267252 -3.34806e-005 17.0798 3.32788e-005 -0.0017604 -0.000238202 113.491 82.1668 -75.6256 -0.00033462 -0.000296469 25.1429 0.00127047 -0.000553563 23.7877 -0.000569041 -0.000556207 -0.000474276 35.3514 89.9995 10.2312 6.71105e-005 -0.000205416 32.8604 0.00114939 -0.000784757 29.0793 -0.000533608 -0.000483183 0.000112267 -54.9781 87.2294 104.352 0.00036765 -0.000708209 36.6517 0.00178478 -0.000258663 32.8707 -0.000644595 -0.000672365 0.000691125 -54.9966 84.2102 104.371 0.00139674 -0.0009308 36.6517 0.000416093 -0.000211469 32.8707 -6.31796e-005 -7.60745e-005 -0.000402981 -107.143 -18.3562 -41.3836 -65.4116 -20.5896 -1.82586 -138.958 -88.0369 -79.3173 30.26 -35.4093 -3.51709 163.084 -0.517068 165.389 -9.20395e-005 4.64609e-005 15.9179 0.000117876 -4.8824e-005 17.0798 0.000152588 0.000274658 -180 -113.491 -82.1668 -93.2683 -0.000234389 -0.000511246 7.5002 0.00019422 0.00017287 6.14498 -9.15529e-005 -4.57763e-005 -180 -82.4335 -89.9996 -59.9294 -1.92663e-005 -5.6314e-006 9.7819 6.14181e-005 0.000248549 6.00081 -1.52588e-005 -5.79056e-014 -180 54.9778 -87.2302 77.1192 -3.15266e-005 -0.000240329 9.41915 0.000145233 0.000663331 5.6381 1.52588e-005 -0.000137329 180 54.9986 -84.211 77.14 9.62693e-005 0.000310036 9.41915 5.72466e-005 0.000231322 5.63811 -3.24611e-014 -3.24611e-014 -180 
0 0 0 -90 -7.01671e-015 -180 1.72495 -4.08619 -85.3518 156.713 -0.52032 -69.378 -3.13263 -2.91297 -46.88 6.7344 -2.9942 65.7947 -0.571748 0.104706 57.7614 1.27344e-005 2.44808e-005 -86.4974 -158.976 4.41674 -70.0431 0.948403 0.842532 -48.117 3.79262 -5.14507 66.0903 0.581542 -0.122631 56.7844 1.29604e-005 -5.7741e-005 -86.4974 3.10113 -6.50485 131.686 -0.920746 0.460882 -12.9106 2.14576 0.479732 -13.3593 1.13921 2.62598 6.28897 11.08 -5.69599 47.1368 -8.38978 -8.95427 60.9854 104.166 23.2085 -35.4005 44.9328 24.0955 15.032 18.3719 80.9669 59.905 -20.1118 27.0505 18.4171 -156.123 -1.29681 165.437 0.000378728 -4.40373e-005 15.9179 0.000262966 -2.49681e-005 17.0798 3.32898e-005 -0.00177384 -0.000238203 113.49 82.1669 -75.625 -0.0002679 -0.000436837 25.143 0.00133606 -0.000551343 23.7878 -0.000569045 -0.000584885 -0.000474275 36.7677 89.9994 8.81497 0.000205138 -0.000346941 32.8604 0.00115787 -0.000665976 29.0793 -0.000533611 -0.000290279 0.000110135 -54.977 87.2294 104.351 0.00045148 -0.000774244 36.6518 0.00178171 -0.000128571 32.8707 -0.000644597 -0.000674778 0.000691126 -54.9958 84.2102 104.37 0.0014774 -0.000992705 36.6518 0.000414511 -0.00017169 32.8707 -6.318e-005 -0.000110818 -0.000402982 -106.718 -18.6974 -41.1349 -66.5422 -17.7555 -0.922158 -166.801 -82.5729 -105.853 29.9458 -30.8362 -6.4358 163.084 -0.517098 165.389 -9.1239e-005 -3.16893e-005 15.9179 0.000122745 0.000165598 17.0798 0.000152588 0.000274658 -180 -113.491 -82.1667 -93.269 -0.000234383 -0.00054129 7.50021 0.000193858 0.0001712 6.14499 -9.1553e-005 -6.10351e-005 -180 -82.4533 -89.9996 -59.9492 -1.19777e-005 0.00011675 9.78191 6.04269e-005 0.000216704 6.00081 -1.52588e-005 7.01671e-015 180 54.9778 -87.2302 77.1192 -3.26287e-005 -0.000240998 9.41916 0.0001442 0.000649847 5.63811 1.52588e-005 -0.000213623 -180 54.9996 -84.2111 77.141 9.31391e-005 0.000462409 9.41916 5.60323e-005 0.000231432 5.63812 7.01671e-015 -1.52588e-005 180 
